<mxfile host="app.diagrams.net" agent="Mozilla/5.0 (Macintosh; Intel Mac OS X 10_15_7) AppleWebKit/537.36 (KHTML, like Gecko) Chrome/131.0.0.0 Safari/537.36" version="25.0.3">
  <diagram id="pLpUgEU0VtJ5ShySj7Jg" name="構成図">
    <mxGraphModel dx="2795" dy="1462" grid="1" gridSize="10" guides="1" tooltips="1" connect="1" arrows="1" fold="1" page="1" pageScale="1" pageWidth="1654" pageHeight="2336" math="0" shadow="0">
      <root>
        <mxCell id="0" />
        <mxCell id="1" parent="0" />
        <mxCell id="uOkqIOQRm-qmB_cufKrG-42" value="VPC" style="points=[[0,0],[0.25,0],[0.5,0],[0.75,0],[1,0],[1,0.25],[1,0.5],[1,0.75],[1,1],[0.75,1],[0.5,1],[0.25,1],[0,1],[0,0.75],[0,0.5],[0,0.25]];outlineConnect=0;gradientColor=none;html=1;whiteSpace=wrap;fontSize=15;fontStyle=0;container=1;pointerEvents=0;collapsible=0;recursiveResize=0;shape=mxgraph.aws4.group;grIcon=mxgraph.aws4.group_vpc2;strokeColor=#8C4FFF;fillColor=none;verticalAlign=top;align=left;spacingLeft=30;fontColor=#9373dd;dashed=0;labelBackgroundColor=default;" parent="1" vertex="1">
          <mxGeometry x="432" y="1110" width="820" height="500" as="geometry" />
        </mxCell>
        <mxCell id="uOkqIOQRm-qmB_cufKrG-24" value="AWS Cloud" style="points=[[0,0],[0.25,0],[0.5,0],[0.75,0],[1,0],[1,0.25],[1,0.5],[1,0.75],[1,1],[0.75,1],[0.5,1],[0.25,1],[0,1],[0,0.75],[0,0.5],[0,0.25]];outlineConnect=0;gradientColor=none;html=1;whiteSpace=wrap;fontSize=15;fontStyle=0;container=1;pointerEvents=0;collapsible=0;recursiveResize=0;shape=mxgraph.aws4.group;grIcon=mxgraph.aws4.group_aws_cloud_alt;strokeColor=#232F3E;fillColor=none;verticalAlign=top;align=left;spacingLeft=30;fontColor=#232F3E;dashed=0;strokeWidth=1;" parent="1" vertex="1">
          <mxGeometry x="332" y="800" width="990" height="990" as="geometry" />
        </mxCell>
        <mxCell id="uOkqIOQRm-qmB_cufKrG-31" value="" style="sketch=0;points=[[0,0,0],[0.25,0,0],[0.5,0,0],[0.75,0,0],[1,0,0],[0,1,0],[0.25,1,0],[0.5,1,0],[0.75,1,0],[1,1,0],[0,0.25,0],[0,0.5,0],[0,0.75,0],[1,0.25,0],[1,0.5,0],[1,0.75,0]];outlineConnect=0;fontColor=#232F3E;fillColor=#8C4FFF;strokeColor=#ffffff;dashed=0;verticalLabelPosition=bottom;verticalAlign=top;align=center;html=1;fontSize=12;fontStyle=0;aspect=fixed;shape=mxgraph.aws4.resourceIcon;resIcon=mxgraph.aws4.route_53;" parent="uOkqIOQRm-qmB_cufKrG-24" vertex="1">
          <mxGeometry x="210" y="20" width="78" height="78" as="geometry" />
        </mxCell>
        <mxCell id="uOkqIOQRm-qmB_cufKrG-74" value="Route53" style="text;strokeColor=none;align=center;fillColor=none;html=1;verticalAlign=middle;whiteSpace=wrap;rounded=0;fontSize=15;" parent="uOkqIOQRm-qmB_cufKrG-24" vertex="1">
          <mxGeometry x="219" y="90" width="60" height="30" as="geometry" />
        </mxCell>
        <mxCell id="uOkqIOQRm-qmB_cufKrG-37" value="" style="sketch=0;outlineConnect=0;fontColor=#232F3E;gradientColor=none;fillColor=#232F3D;strokeColor=none;dashed=0;verticalLabelPosition=bottom;verticalAlign=top;align=center;html=1;fontSize=12;fontStyle=0;aspect=fixed;pointerEvents=1;shape=mxgraph.aws4.internet_alt2;" parent="1" vertex="1">
          <mxGeometry x="822" y="640" width="78" height="78" as="geometry" />
        </mxCell>
        <mxCell id="uOkqIOQRm-qmB_cufKrG-39" value="Region" style="points=[[0,0],[0.25,0],[0.5,0],[0.75,0],[1,0],[1,0.25],[1,0.5],[1,0.75],[1,1],[0.75,1],[0.5,1],[0.25,1],[0,1],[0,0.75],[0,0.5],[0,0.25]];outlineConnect=0;gradientColor=none;html=1;whiteSpace=wrap;fontSize=15;fontStyle=0;container=1;pointerEvents=0;collapsible=0;recursiveResize=0;shape=mxgraph.aws4.group;grIcon=mxgraph.aws4.group_region;strokeColor=#00A4A6;fillColor=none;verticalAlign=top;align=left;spacingLeft=30;fontColor=#147EBA;dashed=1;" parent="1" vertex="1">
          <mxGeometry x="362" y="920" width="940" height="810" as="geometry" />
        </mxCell>
        <mxCell id="uOkqIOQRm-qmB_cufKrG-29" value="Public subnet" style="points=[[0,0],[0.25,0],[0.5,0],[0.75,0],[1,0],[1,0.25],[1,0.5],[1,0.75],[1,1],[0.75,1],[0.5,1],[0.25,1],[0,1],[0,0.75],[0,0.5],[0,0.25]];outlineConnect=0;gradientColor=none;html=1;whiteSpace=wrap;fontSize=15;fontStyle=0;container=1;pointerEvents=0;collapsible=0;recursiveResize=0;shape=mxgraph.aws4.group;grIcon=mxgraph.aws4.group_security_group;grStroke=0;strokeColor=#7AA116;fillColor=#F2F6E8;verticalAlign=top;align=left;spacingLeft=30;fontColor=#248814;dashed=0;" parent="uOkqIOQRm-qmB_cufKrG-39" vertex="1">
          <mxGeometry x="110" y="290" width="740" height="138" as="geometry" />
        </mxCell>
        <mxCell id="uOkqIOQRm-qmB_cufKrG-25" value="Private subnet" style="points=[[0,0],[0.25,0],[0.5,0],[0.75,0],[1,0],[1,0.25],[1,0.5],[1,0.75],[1,1],[0.75,1],[0.5,1],[0.25,1],[0,1],[0,0.75],[0,0.5],[0,0.25]];outlineConnect=0;gradientColor=none;html=1;whiteSpace=wrap;fontSize=15;fontStyle=0;container=1;pointerEvents=0;collapsible=0;recursiveResize=0;shape=mxgraph.aws4.group;grIcon=mxgraph.aws4.group_security_group;grStroke=0;strokeColor=#00A4A6;fillColor=#E6F6F7;verticalAlign=top;align=left;spacingLeft=30;fontColor=#147EBA;dashed=0;" parent="uOkqIOQRm-qmB_cufKrG-39" vertex="1">
          <mxGeometry x="110" y="490" width="740" height="130" as="geometry" />
        </mxCell>
        <mxCell id="uOkqIOQRm-qmB_cufKrG-27" value="" style="sketch=0;points=[[0,0,0],[0.25,0,0],[0.5,0,0],[0.75,0,0],[1,0,0],[0,1,0],[0.25,1,0],[0.5,1,0],[0.75,1,0],[1,1,0],[0,0.25,0],[0,0.5,0],[0,0.75,0],[1,0.25,0],[1,0.5,0],[1,0.75,0]];outlineConnect=0;fontColor=#232F3E;fillColor=#ED7100;strokeColor=#ffffff;dashed=0;verticalLabelPosition=bottom;verticalAlign=top;align=center;html=1;fontSize=12;fontStyle=0;aspect=fixed;shape=mxgraph.aws4.resourceIcon;resIcon=mxgraph.aws4.ec2;" parent="uOkqIOQRm-qmB_cufKrG-25" vertex="1">
          <mxGeometry x="153" y="20" width="78" height="78" as="geometry" />
        </mxCell>
        <mxCell id="uOkqIOQRm-qmB_cufKrG-38" value="" style="sketch=0;points=[[0,0,0],[0.25,0,0],[0.5,0,0],[0.75,0,0],[1,0,0],[0,1,0],[0.25,1,0],[0.5,1,0],[0.75,1,0],[1,1,0],[0,0.25,0],[0,0.5,0],[0,0.75,0],[1,0.25,0],[1,0.5,0],[1,0.75,0]];outlineConnect=0;fontColor=#232F3E;fillColor=#C925D1;strokeColor=#ffffff;dashed=0;verticalLabelPosition=bottom;verticalAlign=top;align=center;html=1;fontSize=12;fontStyle=0;aspect=fixed;shape=mxgraph.aws4.resourceIcon;resIcon=mxgraph.aws4.rds;" parent="uOkqIOQRm-qmB_cufKrG-25" vertex="1">
          <mxGeometry x="420" y="20" width="78" height="78" as="geometry" />
        </mxCell>
        <mxCell id="uOkqIOQRm-qmB_cufKrG-58" value="" style="edgeStyle=orthogonalEdgeStyle;html=1;endArrow=block;elbow=vertical;startArrow=none;endFill=1;strokeColor=#545B64;rounded=0;entryX=0;entryY=0.5;entryDx=0;entryDy=0;entryPerimeter=0;exitX=1;exitY=0.5;exitDx=0;exitDy=0;exitPerimeter=0;" parent="uOkqIOQRm-qmB_cufKrG-25" source="uOkqIOQRm-qmB_cufKrG-27" target="uOkqIOQRm-qmB_cufKrG-38" edge="1">
          <mxGeometry width="100" relative="1" as="geometry">
            <mxPoint x="238" y="58.17000000000007" as="sourcePoint" />
            <mxPoint x="338" y="58.17000000000007" as="targetPoint" />
          </mxGeometry>
        </mxCell>
        <mxCell id="uOkqIOQRm-qmB_cufKrG-30" value="" style="sketch=0;points=[[0,0,0],[0.25,0,0],[0.5,0,0],[0.75,0,0],[1,0,0],[0,1,0],[0.25,1,0],[0.5,1,0],[0.75,1,0],[1,1,0],[0,0.25,0],[0,0.5,0],[0,0.75,0],[1,0.25,0],[1,0.5,0],[1,0.75,0]];outlineConnect=0;fontColor=#232F3E;fillColor=#7AA116;strokeColor=#ffffff;dashed=0;verticalLabelPosition=bottom;verticalAlign=top;align=center;html=1;fontSize=12;fontStyle=0;aspect=fixed;shape=mxgraph.aws4.resourceIcon;resIcon=mxgraph.aws4.s3;" parent="uOkqIOQRm-qmB_cufKrG-39" vertex="1">
          <mxGeometry x="740" y="10" width="78" height="78" as="geometry" />
        </mxCell>
        <mxCell id="uOkqIOQRm-qmB_cufKrG-65" value="" style="edgeStyle=orthogonalEdgeStyle;html=1;endArrow=none;elbow=vertical;startArrow=block;startFill=1;strokeColor=#545B64;rounded=0;entryX=0;entryY=0.5;entryDx=0;entryDy=0;entryPerimeter=0;exitX=1;exitY=0.5;exitDx=0;exitDy=0;exitPerimeter=0;" parent="uOkqIOQRm-qmB_cufKrG-39" source="MuasWBrmAenL5BPcaUVw-2" target="uOkqIOQRm-qmB_cufKrG-30" edge="1">
          <mxGeometry width="100" relative="1" as="geometry">
            <mxPoint x="589" y="144" as="sourcePoint" />
            <mxPoint x="668" y="70" as="targetPoint" />
            <Array as="points">
              <mxPoint x="588" y="353" />
              <mxPoint x="588" y="49" />
            </Array>
          </mxGeometry>
        </mxCell>
        <mxCell id="uOkqIOQRm-qmB_cufKrG-89" value="S3" style="text;strokeColor=none;align=center;fillColor=none;html=1;verticalAlign=middle;whiteSpace=wrap;rounded=0;fontSize=15;" parent="uOkqIOQRm-qmB_cufKrG-39" vertex="1">
          <mxGeometry x="749" y="88" width="60" height="30" as="geometry" />
        </mxCell>
        <mxCell id="uOkqIOQRm-qmB_cufKrG-95" value="EC2" style="text;strokeColor=none;align=center;fillColor=none;html=1;verticalAlign=middle;whiteSpace=wrap;rounded=0;fontSize=15;" parent="uOkqIOQRm-qmB_cufKrG-39" vertex="1">
          <mxGeometry x="271.5" y="590" width="60" height="30" as="geometry" />
        </mxCell>
        <mxCell id="uOkqIOQRm-qmB_cufKrG-96" value="RDS" style="text;strokeColor=none;align=center;fillColor=none;html=1;verticalAlign=middle;whiteSpace=wrap;rounded=0;fontSize=15;" parent="uOkqIOQRm-qmB_cufKrG-39" vertex="1">
          <mxGeometry x="538" y="590" width="60" height="30" as="geometry" />
        </mxCell>
        <mxCell id="uOkqIOQRm-qmB_cufKrG-41" value="Availability Zone" style="fillColor=none;strokeColor=#147EBA;dashed=1;verticalAlign=top;fontStyle=0;fontColor=#147EBA;whiteSpace=wrap;html=1;fontSize=15;" parent="uOkqIOQRm-qmB_cufKrG-39" vertex="1">
          <mxGeometry x="44" y="120" width="876" height="660" as="geometry" />
        </mxCell>
        <mxCell id="MuasWBrmAenL5BPcaUVw-1" value="API Gateway" style="text;strokeColor=none;align=center;fillColor=none;html=1;verticalAlign=middle;whiteSpace=wrap;rounded=0;" vertex="1" parent="uOkqIOQRm-qmB_cufKrG-39">
          <mxGeometry x="271.5" y="392" width="60" height="30" as="geometry" />
        </mxCell>
        <mxCell id="uOkqIOQRm-qmB_cufKrG-64" value="" style="edgeStyle=orthogonalEdgeStyle;html=1;endArrow=none;elbow=vertical;startArrow=block;startFill=1;strokeColor=#545B64;rounded=0;exitX=0.5;exitY=0;exitDx=0;exitDy=0;exitPerimeter=0;entryX=0.5;entryY=1;entryDx=0;entryDy=0;" parent="uOkqIOQRm-qmB_cufKrG-39" source="uOkqIOQRm-qmB_cufKrG-27" target="MuasWBrmAenL5BPcaUVw-1" edge="1">
          <mxGeometry width="100" relative="1" as="geometry">
            <mxPoint x="388" y="380" as="sourcePoint" />
            <mxPoint x="302" y="430" as="targetPoint" />
          </mxGeometry>
        </mxCell>
        <mxCell id="MuasWBrmAenL5BPcaUVw-2" value="" style="sketch=0;points=[[0,0,0],[0.25,0,0],[0.5,0,0],[0.75,0,0],[1,0,0],[0,1,0],[0.25,1,0],[0.5,1,0],[0.75,1,0],[1,1,0],[0,0.25,0],[0,0.5,0],[0,0.75,0],[1,0.25,0],[1,0.5,0],[1,0.75,0]];outlineConnect=0;fontColor=#232F3E;fillColor=#E7157B;strokeColor=#ffffff;dashed=0;verticalLabelPosition=bottom;verticalAlign=top;align=center;html=1;fontSize=12;fontStyle=0;aspect=fixed;shape=mxgraph.aws4.resourceIcon;resIcon=mxgraph.aws4.api_gateway;" vertex="1" parent="uOkqIOQRm-qmB_cufKrG-39">
          <mxGeometry x="262.5" y="314" width="78" height="78" as="geometry" />
        </mxCell>
        <mxCell id="uOkqIOQRm-qmB_cufKrG-47" value="" style="edgeStyle=orthogonalEdgeStyle;html=1;endArrow=block;elbow=vertical;startArrow=none;endFill=1;strokeColor=#545B64;rounded=0;entryX=0.5;entryY=0;entryDx=0;entryDy=0;entryPerimeter=0;" parent="1" source="uOkqIOQRm-qmB_cufKrG-37" target="uOkqIOQRm-qmB_cufKrG-31" edge="1">
          <mxGeometry width="100" relative="1" as="geometry">
            <mxPoint x="969" y="690" as="sourcePoint" />
            <mxPoint x="1069" y="690" as="targetPoint" />
          </mxGeometry>
        </mxCell>
        <mxCell id="uOkqIOQRm-qmB_cufKrG-50" value="" style="edgeStyle=orthogonalEdgeStyle;html=1;endArrow=block;elbow=vertical;startArrow=none;endFill=1;strokeColor=#545B64;rounded=0;entryX=0.5;entryY=0;entryDx=0;entryDy=0;entryPerimeter=0;" parent="1" source="uOkqIOQRm-qmB_cufKrG-37" target="uOkqIOQRm-qmB_cufKrG-30" edge="1">
          <mxGeometry width="100" relative="1" as="geometry">
            <mxPoint x="830" y="859" as="sourcePoint" />
            <mxPoint x="1159" y="1031" as="targetPoint" />
          </mxGeometry>
        </mxCell>
        <mxCell id="uOkqIOQRm-qmB_cufKrG-68" value="" style="edgeStyle=orthogonalEdgeStyle;html=1;endArrow=none;elbow=vertical;startArrow=block;startFill=1;strokeColor=#545B64;rounded=0;" parent="1" source="uOkqIOQRm-qmB_cufKrG-37" target="uOkqIOQRm-qmB_cufKrG-67" edge="1">
          <mxGeometry width="100" relative="1" as="geometry">
            <mxPoint x="861" y="642" as="sourcePoint" />
            <mxPoint x="861" y="506" as="targetPoint" />
          </mxGeometry>
        </mxCell>
        <mxCell id="uOkqIOQRm-qmB_cufKrG-69" value="" style="group;fontSize=15;" parent="1" vertex="1" connectable="0">
          <mxGeometry x="826" y="430" width="78" height="106" as="geometry" />
        </mxCell>
        <mxCell id="uOkqIOQRm-qmB_cufKrG-22" value="" style="sketch=0;outlineConnect=0;fontColor=#232F3E;gradientColor=none;fillColor=#232F3D;strokeColor=none;dashed=0;verticalLabelPosition=bottom;verticalAlign=top;align=center;html=1;fontSize=12;fontStyle=0;aspect=fixed;pointerEvents=1;shape=mxgraph.aws4.client;" parent="uOkqIOQRm-qmB_cufKrG-69" vertex="1">
          <mxGeometry width="78" height="76" as="geometry" />
        </mxCell>
        <mxCell id="uOkqIOQRm-qmB_cufKrG-45" value="" style="edgeStyle=orthogonalEdgeStyle;html=1;endArrow=none;elbow=vertical;startArrow=block;startFill=1;strokeColor=#545B64;rounded=0;" parent="uOkqIOQRm-qmB_cufKrG-69" source="uOkqIOQRm-qmB_cufKrG-67" target="uOkqIOQRm-qmB_cufKrG-22" edge="1">
          <mxGeometry width="100" relative="1" as="geometry">
            <mxPoint x="870" y="500" as="sourcePoint" />
            <mxPoint x="930" y="570" as="targetPoint" />
          </mxGeometry>
        </mxCell>
        <mxCell id="uOkqIOQRm-qmB_cufKrG-67" value="&lt;font style=&quot;font-size: 15px;&quot;&gt;Client&lt;/font&gt;" style="text;strokeColor=none;align=center;fillColor=none;html=1;verticalAlign=middle;whiteSpace=wrap;rounded=0;" parent="uOkqIOQRm-qmB_cufKrG-69" vertex="1">
          <mxGeometry x="5" y="76" width="60" height="30" as="geometry" />
        </mxCell>
        <mxCell id="uOkqIOQRm-qmB_cufKrG-73" value="Internet" style="text;strokeColor=none;align=center;fillColor=none;html=1;verticalAlign=middle;whiteSpace=wrap;rounded=0;fontSize=15;" parent="1" vertex="1">
          <mxGeometry x="829" y="710" width="60" height="30" as="geometry" />
        </mxCell>
      </root>
    </mxGraphModel>
  </diagram>
</mxfile>
